<svg width="136" height="18" viewBox="0 0 136 18" fill="none" xmlns="http://www.w3.org/2000/svg">
<path d="M8.7963 13.6881L3.36037 16.7309L4.57426 10.6206L0 6.39086L6.18662 5.65713L8.7963 0L11.406 5.65713L17.5926 6.39086L13.0183 10.6206L14.2322 16.7309L8.7963 13.6881Z" fill="#EEC32B"/>
<path d="M28.1483 13.6881L22.7124 16.7309L23.9263 10.6206L19.3521 6.39086L25.5387 5.65713L28.1483 0L30.758 5.65713L36.9446 6.39086L32.3704 10.6206L33.5843 16.7309L28.1483 13.6881Z" fill="#EEC32B"/>
<path d="M47.4999 13.6881L42.064 16.7309L43.2779 10.6206L38.7036 6.39086L44.8902 5.65713L47.4999 0L50.1096 5.65713L56.2962 6.39086L51.7219 10.6206L52.9358 16.7309L47.4999 13.6881Z" fill="#EEC32B"/>
<path d="M66.7963 13.6881L61.3604 16.7309L62.5743 10.6206L58 6.39086L64.1866 5.65713L66.7963 0L69.406 5.65713L75.5926 6.39086L71.0183 10.6206L72.2322 16.7309L66.7963 13.6881ZM66.7963 11.9216L70.0696 13.7536L69.3382 10.0749L72.092 7.52768L68.367 7.08606L66.7963 3.68022L65.2256 7.08683L61.5006 7.52768L64.2544 10.0749L63.523 13.7536L66.7963 11.9216V11.9216Z" fill="#EEC32B"/>
<path d="M86.204 13.6881L80.7681 16.7309L81.982 10.6206L77.4077 6.39086L83.5943 5.65713L86.204 0L88.8137 5.65713L95.0003 6.39086L90.426 10.6206L91.6399 16.7309L86.204 13.6881ZM86.204 11.9216L89.4773 13.7536L88.7459 10.0749L91.4997 7.52768L87.7748 7.08606L86.204 3.68022L84.6333 7.08683L80.9084 7.52768L83.6622 10.0749L82.9307 13.7536L86.204 11.9216V11.9216Z" fill="#EEC32B"/>
<path d="M110.234 9.036L109.146 8.322L108.619 9.121C108.143 9.869 107.769 10.413 107.514 10.77L105.134 7.914C106.511 6.843 107.14 5.925 107.14 4.905C107.14 4.242 106.902 3.681 106.443 3.256C105.984 2.814 105.389 2.593 104.675 2.593C103.179 2.593 102.176 3.579 102.176 5.058C102.176 5.959 102.55 6.69 103.383 7.761C102.448 8.458 101.802 9.053 101.411 9.58C101.037 10.107 100.85 10.668 100.85 11.263C100.85 12.946 102.295 14.187 104.284 14.187C105.576 14.187 106.579 13.677 107.531 12.725L108.602 14H110.2L108.347 11.79C108.738 11.263 109.316 10.447 110.047 9.325L110.234 9.036ZM103.468 5.058C103.468 4.242 103.876 3.8 104.675 3.8C105.406 3.8 105.848 4.225 105.848 4.956C105.848 5.653 105.44 6.214 104.42 7.047C103.74 6.214 103.468 5.67 103.468 5.058ZM106.715 11.739C105.967 12.555 105.168 12.963 104.318 12.963C103.111 12.963 102.244 12.215 102.244 11.144C102.244 10.311 102.55 9.903 104.148 8.662L106.715 11.739ZM116.733 10.702C116.733 12.793 118.229 14.187 120.167 14.187C122.088 14.187 123.584 12.793 123.584 10.702V5.721H122.275V10.787C122.275 12.096 121.374 12.98 120.167 12.98C118.943 12.98 118.025 12.13 118.025 10.787V5.721H116.733V10.702ZM134.796 9.852C134.796 7.421 133.062 5.534 130.699 5.534C129.407 5.534 128.2 6.095 127.571 7.047V5.721H126.347V17.06H127.656V12.81C128.336 13.677 129.475 14.187 130.699 14.187C133.028 14.187 134.796 12.283 134.796 9.852ZM133.453 9.869C133.453 11.654 132.195 12.98 130.512 12.98C128.982 12.98 127.639 11.96 127.639 9.852C127.639 7.761 129.033 6.741 130.512 6.741C132.195 6.741 133.453 8.084 133.453 9.869Z" fill="#2F3542"/>
</svg>
