<svg width="15" height="15" viewBox="0 0 15 15" fill="none" xmlns="http://www.w3.org/2000/svg">
<path d="M8.26111 3.2008L11.7992 6.73889L3.53809 15H0V11.4619L8.26111 3.2008V3.2008ZM9.43769 2.01588L11.2067 0.24683C11.2843 0.168618 11.3766 0.10654 11.4783 0.0641754C11.58 0.0218112 11.689 0 11.7992 0C11.9094 0 12.0184 0.0218112 12.1201 0.0641754C12.2218 0.10654 12.3141 0.168618 12.3917 0.24683L14.7532 2.60834C14.8314 2.68591 14.8935 2.7782 14.9358 2.87989C14.9782 2.98158 15 3.09064 15 3.2008C15 3.31096 14.9782 3.42003 14.9358 3.52171C14.8935 3.6234 14.8314 3.71569 14.7532 3.79327L12.9841 5.56231L9.43769 2.01588Z" fill="white"/>
</svg>
