<svg width="23" height="22" viewBox="0 0 23 22" fill="none" xmlns="http://www.w3.org/2000/svg">
<path d="M8 3H13.45C13.6182 3.00135 13.7834 3.04513 13.9303 3.12728C14.0771 3.20944 14.2008 3.32732 14.29 3.47L17.75 9H22.16C22.2469 8.99976 22.3324 9.02218 22.408 9.06505C22.4836 9.10792 22.5467 9.16976 22.5911 9.24446C22.6356 9.31916 22.6597 9.40416 22.6613 9.49105C22.6628 9.57795 22.6417 9.66375 22.6 9.74L18.6 17H18C17.4836 16.9988 16.9694 16.9316 16.47 16.8L19.63 11H2.4L3.45 16.82C2.97592 16.9394 2.4889 16.9999 2 17H1.45L0.21 10.18C0.183828 10.0506 0.183537 9.91731 0.209142 9.7878C0.234748 9.65829 0.285743 9.53513 0.359187 9.42543C0.432631 9.31573 0.527069 9.22166 0.637054 9.14864C0.747038 9.07562 0.870393 9.0251 1 9H1.18H2V4C2 3.73478 2.10536 3.48043 2.29289 3.29289C2.48043 3.10536 2.73478 3 3 3H4V0H8V3ZM4 9H15.39L12.89 5H4V9ZM2 19C3.47615 18.9994 4.90027 18.4547 6 17.47C7.10004 18.4539 8.52414 18.9979 10 18.9979C11.4759 18.9979 12.9 18.4539 14 17.47C15.0997 18.4547 16.5239 18.9994 18 19H20V21H18C16.5959 21.0005 15.2163 20.6315 14 19.93C12.7838 20.6321 11.4043 21.0018 10 21.0018C8.59571 21.0018 7.21615 20.6321 6 19.93C4.78367 20.6315 3.40413 21.0005 2 21H0V19H2Z" fill="#2F3542"/>
</svg>
