<svg width="77" height="58" viewBox="0 0 77 58" fill="none" xmlns="http://www.w3.org/2000/svg">
<circle opacity="0.25" cx="20.4011" cy="20.4836" r="20" fill="#78CBC3"/>
<g clip-path="url(#clip0_37_568)">
<path d="M19.4229 23.4888H46.4297C46.6484 23.4888 46.8671 23.48 47.0858 23.4975C47.3719 23.5105 47.643 23.6295 47.8463 23.8312C48.0497 24.033 48.1708 24.3031 48.1861 24.5891C48.2098 24.8862 48.121 25.1812 47.9372 25.4159C47.7535 25.6505 47.4883 25.8074 47.1942 25.8557C46.9548 25.8805 46.7139 25.8869 46.4735 25.8749H19.4229V52.2205C19.4229 53.9891 20.1017 54.6608 21.8843 54.6608H67.2753C69.1226 54.6608 69.8014 53.9838 69.8014 52.1347V39.3416C69.5949 39.4343 69.4392 39.4868 69.3028 39.5672C67.7476 40.4979 66.1907 41.4198 64.6495 42.3662C64.4009 42.5438 64.103 42.6392 63.7975 42.6392C63.492 42.6392 63.1942 42.5438 62.9456 42.3662C60.7361 41.0035 58.4304 39.7824 56.298 38.3042C52.5053 35.6661 50.6387 31.9225 50.5932 27.3094C50.5548 23.3296 50.5828 19.3497 50.5932 15.3717C50.5932 14.4795 50.8032 14.1838 51.6429 13.848C55.4653 12.3155 59.2841 10.7743 63.1188 9.27684C63.5397 9.12091 64.0012 9.11289 64.4273 9.25411C68.3039 10.7673 72.1595 12.3312 76.0256 13.8689C76.6432 14.1156 76.9983 14.518 76.9965 15.1932C76.9755 19.6296 77.0595 24.0713 76.8968 28.5042C76.7691 31.9715 75.1912 34.8719 72.6406 37.2161C72.4864 37.3448 72.3645 37.508 72.2849 37.6924C72.2053 37.8769 72.1701 38.0774 72.1823 38.278C72.198 42.9558 72.1928 47.6353 72.1823 52.3149C72.1823 55.2434 70.3717 57.075 67.459 57.075C52.2207 57.075 36.9814 57.075 21.7408 57.075C18.8264 57.075 17 55.2416 16.9983 52.3202C16.9983 41.8904 16.9983 31.4612 16.9983 21.0326C16.9983 18.0849 18.7949 16.2831 21.7216 16.2831H46.5854C46.782 16.2746 46.979 16.2793 47.175 16.2971C47.458 16.338 47.7169 16.4796 47.9041 16.6958C48.0913 16.912 48.1943 17.1884 48.1943 17.4744C48.1943 17.7604 48.0913 18.0368 47.9041 18.253C47.7169 18.4693 47.458 18.6108 47.175 18.6517C46.9353 18.6713 46.6945 18.676 46.4542 18.6657H21.8528C20.1297 18.6657 19.4247 19.3655 19.4229 21.0816V23.4888ZM74.5719 22.4216C74.5719 20.4326 74.5614 18.4436 74.5719 16.4545C74.5719 16.0539 74.4827 15.8335 74.0838 15.6761C70.781 14.3728 67.4887 13.0432 64.1859 11.7417C63.9303 11.6498 63.6507 11.6498 63.3952 11.7417C60.0714 13.052 56.765 14.3903 53.4447 15.704C53.1089 15.837 52.9864 15.9944 52.9881 16.3653C53.0056 20.1457 52.9427 23.9278 53.0196 27.7065C53.0966 31.4851 54.79 34.4556 57.9441 36.5286C59.746 37.7129 61.6265 38.7783 63.4861 39.8751C63.5846 39.9187 63.6914 39.94 63.7991 39.9376C63.9067 39.9352 64.0125 39.9091 64.1089 39.8611C65.9335 38.7888 67.7826 37.7461 69.546 36.5881C72.7421 34.4888 74.4442 31.5009 74.5492 27.6663C74.6139 25.9204 74.5719 24.171 74.5719 22.4216Z" fill="#02A8DF"/>
<path d="M30.2025 47.4796C31.7297 47.4796 33.2569 47.4796 34.7841 47.4796C35.6588 47.4796 36.2098 47.952 36.2081 48.6657C36.2063 49.3795 35.6483 49.871 34.7911 49.8728C31.7367 49.8798 28.6817 49.8798 25.6261 49.8728C24.7707 49.8728 24.2074 49.3847 24.2039 48.6709C24.2004 47.9572 24.7479 47.4849 25.6209 47.4796C27.1481 47.4744 28.6753 47.4796 30.2025 47.4796Z" fill="#02A8DF"/>
<path d="M62.2002 26.3909L65.3228 23.2526C66.11 22.4636 66.8973 21.6659 67.6897 20.8926C68.2425 20.3591 68.9615 20.3538 69.4391 20.8402C69.9167 21.3265 69.9237 22.0367 69.3726 22.5895C67.2944 24.6888 65.2085 26.774 63.1151 28.8453C62.5133 29.4436 61.88 29.4401 61.2748 28.8453C60.245 27.8377 59.2257 26.8184 58.2169 25.7874C57.6606 25.2188 57.6501 24.5453 58.1469 24.038C58.6437 23.5307 59.326 23.5377 59.8963 24.0853C60.652 24.8182 61.3885 25.5705 62.2002 26.3909Z" fill="#02A8DF"/>
</g>
<defs>
<clipPath id="clip0_37_568">
<rect width="60" height="47.9258" fill="white" transform="translate(17 9.15613)"/>
</clipPath>
</defs>
</svg>
