<svg width="59" height="57" viewBox="0 0 59 57" fill="none" xmlns="http://www.w3.org/2000/svg">
<circle opacity="0.25" cx="20.4011" cy="20.3275" r="20" fill="#78CBC3"/>
<g clip-path="url(#clip0_37_553)">
<path d="M16.0013 23.4903C16.0684 22.5095 16.1196 21.5208 16.2063 20.5466C16.272 19.8061 16.5742 19.5068 17.3087 19.3938C22.7132 18.5641 27.6892 16.6366 32.1843 13.5262C33.7151 12.4641 35.1053 11.197 36.5283 9.98125C37.2983 9.32477 37.7779 9.29063 38.5203 10.0023C43.7434 15.0125 49.9795 18.0257 57.0737 19.2652C58.8331 19.5737 58.8148 19.961 58.9133 21.3475C59.3325 27.6576 58.3654 33.7458 55.857 39.5543C52.8493 46.5196 48.0717 51.8712 41.1785 55.2114C40.1826 55.6726 39.1572 56.0673 38.1091 56.393C37.7205 56.5073 37.3069 56.5046 36.9199 56.3852C31.0727 54.5313 26.5132 50.9154 22.8879 46.0601C19.7527 41.8586 17.8777 37.1017 16.8305 31.9983C16.2609 29.1985 15.983 26.3473 16.0013 23.4903ZM37.5204 12.1726C32.0319 17.1513 25.6197 20.1619 18.3744 21.5208C18.356 21.7244 18.3297 21.9147 18.3218 22.1117C18.0301 28.7474 19.2232 35.0837 22.3452 40.975C25.4673 46.8662 30.0228 51.2607 36.2616 53.8183C37.117 54.1689 37.866 54.1965 38.7358 53.8393C44.993 51.2764 49.5643 46.8806 52.6929 40.9723C55.8215 35.064 57.0041 28.7434 56.7124 22.1077C56.7045 21.9147 56.6769 21.7217 56.6572 21.5182C49.408 20.1606 42.9944 17.1513 37.5191 12.1726H37.5204Z" fill="#02A8DF"/>
<path d="M34.6704 36.4033L38.3088 32.7677C40.0971 30.9807 41.8762 29.1846 43.6843 27.4187C43.9543 27.1658 44.293 26.9982 44.6579 26.9368C45.064 26.8738 45.4108 27.1285 45.6106 27.5106C45.7124 27.6906 45.76 27.8961 45.7476 28.1025C45.7353 28.3089 45.6635 28.5073 45.5409 28.6739C45.4325 28.8161 45.3111 28.948 45.1783 29.0678L35.7373 38.5079C34.9411 39.3023 34.4233 39.2957 33.6152 38.4922C32.3013 37.1792 30.9895 35.8662 29.6799 34.5533C29.2581 34.1279 29.1792 33.6185 29.4263 33.1629C29.533 32.9469 29.7116 32.7747 29.9314 32.6758C30.1512 32.5768 30.3986 32.5573 30.6312 32.6206C30.9081 32.7139 31.1589 32.8713 31.3631 33.0802C32.4616 34.1647 33.5417 35.2702 34.6704 36.4033Z" fill="#02A8DF"/>
</g>
<defs>
<clipPath id="clip0_37_553">
<rect width="43" height="47" fill="white" transform="translate(16 9.48364)"/>
</clipPath>
</defs>
</svg>
