<svg width="18" height="20" viewBox="0 0 18 20" fill="none" xmlns="http://www.w3.org/2000/svg">
<path d="M3.41 13.9708L13.56 3.83079L12.14 2.41079L2 12.5608V13.9708H3.41ZM4.24 15.9708H0V11.7308L11.44 0.290793C11.6274 0.104542 11.8808 0 12.145 0C12.4092 0 12.6626 0.104542 12.85 0.290793L15.68 3.12079C15.7737 3.21376 15.8481 3.32436 15.8989 3.44622C15.9497 3.56808 15.9758 3.69878 15.9758 3.83079C15.9758 3.9628 15.9497 4.09351 15.8989 4.21537C15.8481 4.33723 15.7737 4.44783 15.68 4.54079L4.24 15.9708ZM0 17.9708H18V19.9708H0V17.9708Z" fill="#2F3542"/>
</svg>
