<svg width="64" height="57" viewBox="0 0 64 57" fill="none" xmlns="http://www.w3.org/2000/svg">
<circle opacity="0.25" cx="20.4011" cy="20.4836" r="20" fill="#78CBC3"/>
<g clip-path="url(#clip0_37_558)">
<path d="M45.0197 56.4847C35.8735 56.4847 26.0306 56.4847 16.0362 56.4685C15.3918 56.4771 14.7539 56.3407 14.171 56.0699C13.2241 55.5999 12.7447 54.7259 12.7447 53.4771C12.7447 52.3067 12.7447 51.1367 12.7447 49.9671C12.7447 47.424 12.7447 44.7944 12.7523 42.2081C12.7523 41.884 12.6942 41.776 12.4484 41.6679C11.6475 41.2974 11.2997 40.5628 11.0111 39.8422L10.9968 39.8033V19.4973L11.0155 19.4552C11.0528 19.3763 11.0868 19.2953 11.1252 19.2153C11.2015 19.0276 11.2894 18.8447 11.3885 18.6676C11.9525 17.705 12.8577 17.2372 14.1578 17.2372C15.6808 17.2372 17.1949 17.2372 18.7079 17.2372H24.997C25.0069 17.1151 25.0157 16.9995 25.0168 16.8894C25.0168 16.5447 25.0168 16.1936 25.0168 15.8544C25.0168 15.1468 25.0168 14.4165 25.0596 13.6937C25.1228 12.6061 25.5897 11.5792 26.3716 10.8084C27.1534 10.0376 28.1957 9.57648 29.3002 9.51282C29.501 9.49986 29.7391 9.48581 29.9805 9.48581H31.1874H38.2468C40.9711 9.48581 43.0602 9.48582 45.0208 9.47717H45.0417C46.7796 9.47717 48.0897 10.0735 49.0453 11.2986C49.6817 12.1132 49.9867 13.1017 49.9791 14.3236C49.9791 15.0312 49.9791 15.728 49.9791 16.4648C49.9791 16.7197 49.9791 16.9769 49.9791 17.2361H60.6855C62.8799 17.2361 63.9968 18.3294 63.9968 20.4847C63.9968 22.1369 63.9968 23.788 63.9968 25.4381C63.9968 29.8599 63.9968 34.4318 63.9968 38.9293C63.9968 40.2657 63.468 41.198 62.3708 41.7792C62.2965 41.8761 62.2557 41.9938 62.2545 42.1152C62.2435 44.9468 62.2435 47.8258 62.2435 50.6099V52.4227C62.2435 52.5448 62.2435 52.6668 62.2435 52.7889C62.2435 53.0676 62.2435 53.3572 62.2435 53.6424C62.1952 55.238 61.0794 56.3745 59.4676 56.4696C59.2954 56.4793 59.1242 56.4793 58.9717 56.4793L45.0197 56.4847ZM14.9347 45.4653V53.2956C14.9347 54.1599 15.1047 54.3241 16 54.3241H59.0002C59.8889 54.3241 60.0568 54.1599 60.0568 53.2869C60.0568 50.5969 60.0568 47.9065 60.0568 45.2158V42.2265L41.2136 44.7879C41.2136 44.9619 41.2136 45.1326 41.2136 45.3011C41.2136 45.7959 41.2136 46.2637 41.2136 46.7358C41.184 48.3757 40.0067 49.5447 38.3466 49.5814C38.1458 49.5814 37.9439 49.5814 37.7431 49.5814H37.2406H36.9005C34.953 49.5749 33.7856 48.4308 33.7801 46.5197C33.7801 46.0876 33.7801 45.6555 33.7801 45.2147V44.7825L14.9358 42.2265L14.9347 45.4653ZM37.5018 40.9679C37.2505 40.9679 36.9927 40.9679 36.7337 40.9765C36.2005 40.9884 35.9657 41.2153 35.9657 41.7328C35.9558 43.4818 35.9558 45.0991 35.9657 46.6774C35.9657 47.1895 36.2027 47.4132 36.748 47.425C36.9894 47.425 37.2362 47.4326 37.4831 47.4326C37.73 47.4326 37.9769 47.4326 38.2259 47.425C38.7888 47.4132 39.0104 47.1917 39.017 46.6342C39.0236 46.0552 39.017 45.4653 39.017 44.8938C39.017 44.6507 39.017 44.4066 39.017 44.1635C39.017 43.9204 39.017 43.6752 39.017 43.431C39.017 42.8768 39.017 42.3042 39.017 41.7425C39.0104 41.2174 38.7833 40.9862 38.2599 40.9754C38.0153 40.9711 37.7585 40.9679 37.5029 40.9679H37.5018ZM19.8501 19.4001H14.1666C13.3986 19.4001 13.1879 19.5978 13.1879 20.3173C13.1879 26.5486 13.1879 32.7786 13.1879 39.0071C13.1879 39.6261 13.3635 39.8303 13.9691 39.9156C14.7887 40.0312 15.6226 40.1414 16.429 40.2484L17.93 40.4482L24.2937 41.3125L30.9757 42.2286C31.6504 42.3194 32.3263 42.408 33.0241 42.4998L33.7845 42.6003C33.7845 42.5236 33.7845 42.4479 33.7845 42.3723C33.7845 42.0482 33.7757 41.7349 33.7921 41.4227C33.8337 40.7501 34.1232 40.1155 34.6062 39.6382C35.0892 39.1608 35.7326 38.8734 36.4155 38.8299C36.7513 38.8115 37.1046 38.804 37.4963 38.804C37.7486 38.804 38.0218 38.804 38.3312 38.8148C40.0264 38.8547 41.184 40.0129 41.2103 41.696C41.2103 41.9456 41.2103 42.1908 41.2103 42.4523C41.2103 42.4976 41.2103 42.5419 41.2103 42.5873C41.3042 42.5851 41.398 42.5783 41.4912 42.5668C42.9855 42.3651 44.4796 42.162 45.9732 41.9575L51.4745 41.2099C54.5269 40.7939 57.6825 40.364 60.7875 39.9491C61.6653 39.8303 61.8035 39.6855 61.8035 38.8396C61.8035 32.7098 61.8035 26.5796 61.8035 20.4491C61.8035 20.4134 61.8035 20.3778 61.8035 20.341C61.8086 20.2368 61.8045 20.1324 61.7915 20.0288C61.73 19.6485 61.5391 19.4552 61.1913 19.4217C60.9772 19.4031 60.7622 19.3952 60.5473 19.3979H19.8413L19.8501 19.4001ZM28.5256 17.2199V16.4756C28.5256 15.7593 28.5256 15.0614 28.5256 14.3635C28.5256 13.3016 28.8877 12.9429 29.952 12.9418H45.0856C46.0851 12.9418 46.4593 13.3134 46.4659 14.3074C46.4659 14.7179 46.4659 15.1273 46.4659 15.5379V17.2059H47.7331V16.8569C47.7331 15.728 47.7331 14.6206 47.7331 13.5133C47.7285 13.5055 47.7248 13.4971 47.7221 13.4885C47.7145 13.4669 47.7068 13.4463 47.7013 13.4247C47.3864 12.2817 46.4768 11.6519 45.1404 11.6508C43.104 11.6508 41.0673 11.6508 39.0302 11.6508H31.1205H30.6059C30.2899 11.6508 29.8752 11.6508 29.4571 11.6746C28.8825 11.6965 28.3369 11.9292 27.9276 12.327C27.5183 12.7248 27.2749 13.2589 27.2452 13.8244C27.2079 14.639 27.2134 15.472 27.2178 16.2779C27.2178 16.5923 27.2178 16.9077 27.2178 17.2232L28.5256 17.2199ZM44.2473 17.2124V15.1327H30.7518V17.2124H44.2473Z" fill="#02A8DF"/>
<path d="M11.2195 19.5438C11.3369 19.2877 11.4389 19.0187 11.5772 18.7756C12.1521 17.7958 13.0628 17.4522 14.1654 17.4533C17.6216 17.4598 21.0774 17.4598 24.5328 17.4533H25.201C25.2142 17.2437 25.2329 17.0676 25.235 16.8915C25.2493 15.8317 25.2142 14.7676 25.2811 13.7099C25.4183 11.5341 27.12 9.88231 29.3166 9.73214C29.5361 9.71702 29.7555 9.70513 29.9826 9.70513C34.9957 9.70513 40.0077 9.7127 45.0142 9.69757C46.5832 9.69757 47.8932 10.1891 48.8642 11.4348C49.5291 12.2861 49.7596 13.2713 49.753 14.3236C49.753 15.3477 49.753 16.3762 49.753 17.4565H60.6788C62.7492 17.4565 63.7707 18.4602 63.7707 20.489C63.7707 26.6376 63.7707 32.7858 63.7707 38.9336C63.7707 40.1155 63.3472 41.0165 62.2599 41.5934C62.1227 41.6658 62.0284 41.938 62.0284 42.1184C62.0141 45.555 62.0185 48.9915 62.0185 52.427C62.0185 52.8311 62.0273 53.2362 62.0185 53.6402C61.9735 55.1343 60.9553 56.1693 59.4489 56.2579C59.2788 56.2676 59.1065 56.2676 58.9365 56.2676C44.6342 56.2676 30.3341 56.2626 16.0362 56.2525C15.4259 56.2597 14.8217 56.1316 14.2686 55.8776C13.3129 55.4023 12.964 54.5088 12.964 53.4739C12.964 49.7175 12.964 45.9612 12.9739 42.206C12.9739 41.8451 12.9015 41.6345 12.5427 41.4681C11.8153 41.1321 11.4938 40.4526 11.2173 39.759L11.2195 19.5438ZM34.0093 42.8477C34.0093 42.3356 33.9885 41.884 34.0093 41.4335C34.0471 40.8153 34.3135 40.2321 34.7583 39.7942C35.203 39.3563 35.7953 39.094 36.4231 39.0568C37.054 39.0233 37.6882 39.0265 38.3213 39.0416C39.9035 39.0795 40.9622 40.1458 40.9864 41.7101C40.9919 42.0742 40.9864 42.4371 40.9864 42.8228C41.2124 42.8099 41.366 42.8099 41.5163 42.7893C43.8519 42.4739 46.1878 42.1563 48.5241 41.8365C52.6203 41.2805 56.7165 40.7255 60.8127 40.1717C61.7936 40.0399 62.0196 39.8184 62.0196 38.8483C62.0196 32.7184 62.0196 26.5883 62.0196 20.4577C62.027 20.3063 62.0222 20.1546 62.0053 20.004C61.9329 19.5578 61.6905 19.2629 61.2099 19.2164C60.9904 19.1948 60.771 19.1916 60.545 19.1916H25.968C22.0349 19.1916 18.1011 19.1916 14.1665 19.1916C13.28 19.1916 12.9695 19.4887 12.9684 20.3248C12.9684 26.5562 12.9684 32.7861 12.9684 39.0146C12.9684 39.7385 13.2219 40.0356 13.9383 40.1371C15.255 40.3229 16.5793 40.4915 17.8992 40.6708L30.9503 42.4425C31.9455 42.5776 32.9417 42.7062 34.0093 42.8477ZM14.7162 41.9834V53.2956C14.7162 54.2819 14.9829 54.5401 16.0011 54.5412H59.0012C60.0139 54.5412 60.2773 54.2819 60.2773 53.288C60.2773 49.7013 60.2773 46.1142 60.2773 42.5268V41.978L40.9941 44.5989C40.9941 45.3551 41.0039 46.0433 40.9941 46.7315C40.9666 48.258 39.8826 49.3318 38.341 49.3653C37.8627 49.3751 37.3832 49.3653 36.9048 49.3653C35.0648 49.3653 34.0082 48.3239 34.0027 46.5187C34.0027 45.8856 34.0027 45.2525 34.0027 44.5967L14.7162 41.9834ZM28.745 17.436C28.745 16.3773 28.745 15.3704 28.745 14.3635C28.745 13.4172 29.005 13.159 29.9519 13.1579C32.0548 13.1579 34.1582 13.1579 36.2619 13.1579C39.2023 13.1579 42.1432 13.1579 45.0844 13.1579C45.9687 13.1579 46.2398 13.4312 46.2463 14.3084C46.2463 14.8983 46.2463 15.4871 46.2463 16.077V17.422H47.9525C47.9525 16.0964 47.9525 14.8054 47.9525 13.5133C47.9456 13.4636 47.9324 13.4149 47.913 13.3686C47.5717 12.1316 46.5898 11.4358 45.1404 11.4348C40.6433 11.429 36.1448 11.429 31.6449 11.4348C30.9097 11.4348 30.1735 11.4185 29.4395 11.4553C28.8105 11.4787 28.2133 11.7339 27.7663 12.1702C27.3192 12.6066 27.0549 13.1924 27.0257 13.8115C26.973 14.9545 27.0037 16.1007 27.0026 17.2448C27.0129 17.311 27.0329 17.3754 27.0619 17.436H28.745ZM44.4711 14.9167H30.5367V17.4285H44.4711V14.9167ZM39.2451 44.1657C39.2451 43.3576 39.2528 42.5452 39.2451 41.7414C39.2364 41.0932 38.916 40.7767 38.2741 40.7615C37.7621 40.7493 37.2501 40.7493 36.738 40.7615C36.0896 40.7756 35.7615 41.0921 35.7582 41.7338C35.7487 43.3824 35.7487 45.0317 35.7582 46.6818C35.7582 47.3138 36.1028 47.6292 36.7545 47.6422C37.2504 47.653 37.7464 47.653 38.2423 47.6422C38.9182 47.6282 39.2407 47.3105 39.2484 46.6386C39.2528 45.8143 39.2451 44.99 39.2451 44.1657Z" fill="#02A8DF"/>
</g>
<defs>
<clipPath id="clip0_37_558">
<rect width="53" height="47" fill="white" transform="translate(11 9.48364)"/>
</clipPath>
</defs>
</svg>
