<svg width="21" height="19" viewBox="0 0 21 19" fill="none" xmlns="http://www.w3.org/2000/svg">
<path d="M10.3343 1.52898C12.6833 -0.58002 16.3133 -0.51002 18.5763 1.75698C20.8383 4.02498 20.9163 7.63698 18.8123 9.99298L10.3323 18.485L1.85435 9.99298C-0.24965 7.63698 -0.17065 4.01898 2.09035 1.75698C4.35535 -0.50702 7.97835 -0.58302 10.3343 1.52898ZM17.1603 3.16998C15.6603 1.66798 13.2403 1.60698 11.6703 3.01698L10.3353 4.21498L8.99935 3.01798C7.42435 1.60598 5.00935 1.66798 3.50535 3.17198C2.01535 4.66198 1.94035 7.04698 3.31335 8.62298L10.3333 15.654L17.3533 8.62398C18.7274 7.04698 18.6523 4.66498 17.1603 3.16998Z" fill="white"/>
</svg>
