<svg width="22" height="21" viewBox="0 0 22 21" fill="none" xmlns="http://www.w3.org/2000/svg">
<path d="M2.33334 14V2H0.333344V0H3.33334C3.59856 0 3.85291 0.105357 4.04045 0.292893C4.22799 0.48043 4.33334 0.734784 4.33334 1V13H16.7713L18.7713 5H6.33334V3H20.0533C20.2053 3 20.3554 3.03466 20.492 3.10134C20.6286 3.16801 20.7482 3.26495 20.8417 3.38479C20.9352 3.50462 21.0002 3.6442 21.0316 3.79291C21.0631 3.94162 21.0603 4.09555 21.0233 4.243L18.5233 14.243C18.4692 14.4592 18.3443 14.6512 18.1686 14.7883C17.9928 14.9255 17.7763 15 17.5533 15H3.33334C3.06813 15 2.81377 14.8946 2.62624 14.7071C2.4387 14.5196 2.33334 14.2652 2.33334 14ZM4.33334 21C3.80291 21 3.2942 20.7893 2.91913 20.4142C2.54406 20.0391 2.33334 19.5304 2.33334 19C2.33334 18.4696 2.54406 17.9609 2.91913 17.5858C3.2942 17.2107 3.80291 17 4.33334 17C4.86378 17 5.37248 17.2107 5.74756 17.5858C6.12263 17.9609 6.33334 18.4696 6.33334 19C6.33334 19.5304 6.12263 20.0391 5.74756 20.4142C5.37248 20.7893 4.86378 21 4.33334 21ZM16.3333 21C15.8029 21 15.2942 20.7893 14.9191 20.4142C14.5441 20.0391 14.3333 19.5304 14.3333 19C14.3333 18.4696 14.5441 17.9609 14.9191 17.5858C15.2942 17.2107 15.8029 17 16.3333 17C16.8638 17 17.3725 17.2107 17.7476 17.5858C18.1226 17.9609 18.3333 18.4696 18.3333 19C18.3333 19.5304 18.1226 20.0391 17.7476 20.4142C17.3725 20.7893 16.8638 21 16.3333 21Z" fill="#02A8DF"/>
</svg>
