<svg width="21" height="25" viewBox="0 0 21 25" fill="none" xmlns="http://www.w3.org/2000/svg">
<path d="M19.4643 24.9536H1.53834C1.2412 24.9536 0.956228 24.8232 0.746118 24.5909C0.536007 24.3586 0.417969 24.0436 0.417969 23.7151V1.42047C0.417969 1.09198 0.536007 0.776939 0.746118 0.544659C0.956228 0.312378 1.2412 0.181885 1.53834 0.181885H19.4643C19.7614 0.181885 20.0464 0.312378 20.2565 0.544659C20.4666 0.776939 20.5846 1.09198 20.5846 1.42047V23.7151C20.5846 24.0436 20.4666 24.3586 20.2565 24.5909C20.0464 24.8232 19.7614 24.9536 19.4643 24.9536ZM18.3439 22.4765V2.65906H2.65871V22.4765H18.3439ZM6.01982 6.37483H14.9828V8.852H6.01982V6.37483ZM6.01982 11.3292H14.9828V13.8064H6.01982V11.3292ZM6.01982 16.2835H14.9828V18.7607H6.01982V16.2835Z" fill="#02A8DF"/>
</svg>
