<svg width="25" height="23" viewBox="0 0 25 23" fill="none" xmlns="http://www.w3.org/2000/svg">
<path d="M3.896 22.3H1.7C1.38174 22.3 1.07652 22.1735 0.851472 21.9485C0.626428 21.7234 0.5 21.4182 0.5 21.1V1.89995C0.5 1.58169 0.626428 1.27647 0.851472 1.05142C1.07652 0.826379 1.38174 0.699951 1.7 0.699951H23.3C23.6183 0.699951 23.9235 0.826379 24.1485 1.05142C24.3736 1.27647 24.5 1.58169 24.5 1.89995V21.1C24.5 21.4182 24.3736 21.7234 24.1485 21.9485C23.9235 22.1735 23.6183 22.3 23.3 22.3H3.896ZM22.1 15.1V3.09995H2.9V19.9L14.9 7.89995L22.1 15.1ZM22.1 18.496L14.9 11.296L6.296 19.9H22.1V18.496ZM7.7 10.3C7.22533 10.3 6.76131 10.1592 6.36663 9.89548C5.97195 9.63176 5.66434 9.25693 5.48269 8.81839C5.30104 8.37985 5.25351 7.89729 5.34612 7.43173C5.43872 6.96618 5.6673 6.53854 6.00294 6.2029C6.33859 5.86725 6.76623 5.63867 7.23178 5.54607C7.69734 5.45346 8.1799 5.50099 8.61844 5.68264C9.05698 5.86429 9.43181 6.17191 9.69553 6.56658C9.95924 6.96126 10.1 7.42528 10.1 7.89995C10.1 8.53647 9.84714 9.14692 9.39706 9.59701C8.94697 10.0471 8.33652 10.3 7.7 10.3Z" fill="#A4B0BE"/>
</svg>
